# Blender v2.60 (sub 0) OBJ File: ''
# www.blender.org
mtllib Models/cannon.mtl
o Cannon_Sphere.001
v -0.303467 -0.128796 -0.000000
v -0.693180 -0.147899 -0.000000
v -1.060538 -0.016412 0.000000
v -1.349614 0.245649 0.000000
v -1.376837 0.354378 -0.270598
v -1.110839 0.184494 -0.500000
v -0.758901 0.114596 -0.653282
v -0.374603 0.155327 -0.707107
v -0.546342 0.841262 -1.000000
v -0.917567 0.748317 -0.923880
v -1.232276 0.669523 -0.707107
v -1.442558 0.616874 -0.382683
v -1.508280 0.879370 -0.270598
v -1.353714 1.154552 -0.500000
v -1.076233 1.382038 -0.653281
v -0.718081 1.527196 -0.707107
v -0.789217 1.811319 0.000000
v -1.141954 1.644534 0.000000
v -1.404015 1.355457 0.000000
v -1.535502 0.988099 0.000000
v -1.516399 0.598386 0.000000
v -1.508280 0.879370 0.270598
v -1.353714 1.154552 0.500000
v -1.076233 1.382037 0.653282
v -0.718080 1.527195 0.707107
v -0.546342 0.841261 1.000000
v -0.917567 0.748317 0.923880
v -1.232276 0.669523 0.707107
v -1.442558 0.616874 0.382684
v -1.376837 0.354378 0.270598
v -1.110839 0.184494 0.500000
v -0.758901 0.114596 0.653281
v -0.374603 0.155327 0.707107
v 3.421865 1.419135 0.403207
v 3.323936 1.810269 0.570221
v 3.226007 2.201404 0.403207
v 3.185443 2.363417 -0.000000
v 3.226006 2.201404 -0.403208
v 3.323935 1.810269 -0.570222
v 3.421864 1.419135 -0.403208
v 3.462428 1.257122 -0.000000
v 3.485257 1.165941 -0.000000
v 3.438007 1.354660 -0.469673
v 3.323935 1.810269 -0.664217
v 3.209864 2.265878 -0.469672
v 3.162614 2.454598 -0.000000
v 3.209864 2.265878 0.469672
v 3.323936 1.810269 0.664216
v 3.438007 1.354660 0.469672
v 3.538965 1.379937 0.469672
v 3.424893 1.835546 0.664216
v 3.310822 2.291155 0.469672
v 3.263571 2.479875 -0.000000
v 3.310821 2.291155 -0.469672
v 3.424893 1.835546 -0.664217
v 3.538965 1.379937 -0.469673
v 3.586215 1.191218 -0.000000
v 3.556427 1.310190 -0.000000
v 3.517902 1.464064 -0.382950
v 3.424893 1.835546 -0.541572
v 3.331884 2.207029 -0.382950
v 3.293359 2.360902 -0.000000
v 3.331884 2.207029 0.382949
v 3.424893 1.835546 0.541572
v 3.517902 1.464063 0.382949
v 1.579481 0.564163 -0.000000
v 1.523631 0.787231 0.555157
v 1.388797 1.325765 0.785111
v 1.253963 1.864300 0.555157
v 1.198113 2.087368 0.000000
v 1.253963 1.864300 -0.555157
v 1.388797 1.325765 -0.785111
v 1.523630 0.787231 -0.555157
v 1.510565 0.494234 -0.000000
v 1.451080 0.731820 0.591288
v 1.307471 1.305403 0.836207
v 1.163862 1.878987 0.591288
v 1.104377 2.116573 0.000000
v 1.163862 1.878987 -0.591288
v 1.307471 1.305404 -0.836208
v 1.451080 0.731820 -0.591288
v 1.488277 0.530598 -0.000000
v 1.431687 0.756624 0.562517
v 1.295066 1.302297 0.795519
v 1.158444 1.847971 0.562517
v 1.101854 2.073997 0.000000
v 1.158444 1.847972 -0.562517
v 1.295065 1.302298 -0.795519
v 1.431687 0.756624 -0.562517
v 1.571871 0.516796 -0.000000
v 1.512884 0.752394 0.586340
v 1.370477 1.321178 0.829211
v 1.228069 1.889963 0.586341
v 1.169082 2.125561 0.000000
v 1.228069 1.889963 -0.586341
v 1.370477 1.321179 -0.829211
v 1.512884 0.752394 -0.586341
vn -0.776543 -0.630024 0.000000
vn -0.970031 -0.242866 0.000000
vn -0.806604 -0.509964 -0.298807
vn -0.879177 -0.220099 -0.422559
vn -0.951750 0.069735 -0.298807
vn -0.981811 0.189795 0.000000
vn -0.951750 0.069735 0.298807
vn -0.879177 -0.220099 0.422559
vn -0.806604 -0.509964 0.298807
vn 0.669942 -0.444899 -0.594317
vn 0.770592 -0.353618 -0.530198
vn 0.823939 -0.566668 0.000000
vn 0.729728 -0.683706 0.000000
vn -0.322001 -0.717429 -0.617725
vn -0.259865 -0.965636 0.000000
vn 0.525590 0.131565 -0.840480
vn 0.641804 0.160680 -0.749809
vn -0.472030 -0.118168 -0.873592
vn 0.381237 0.708090 -0.594317
vn 0.513047 0.675008 -0.530198
vn -0.622059 0.481033 -0.617725
vn 0.321451 0.946898 0.000000
vn 0.459700 0.888058 0.000000
vn -0.684225 0.729240 0.000000
vn 0.381237 0.708090 0.594317
vn 0.513047 0.675008 0.530198
vn -0.622059 0.481033 0.617725
vn 0.525590 0.131565 0.840480
vn 0.641804 0.160680 0.749809
vn -0.472030 -0.118168 0.873592
vn 0.669942 -0.444899 0.594317
vn 0.770592 -0.353618 0.530198
vn -0.322001 -0.717429 0.617725
vn -0.480209 -0.684988 -0.547838
vn -0.425092 -0.905118 0.000000
vn 0.200964 -0.979583 0.000000
vn 0.129887 -0.695730 -0.706442
vn -0.613269 -0.153539 -0.774773
vn -0.041658 -0.010407 -0.999054
vn -0.746330 0.377880 -0.547838
vn -0.213233 0.674856 -0.706442
vn -0.801447 0.598010 0.000000
vn -0.284310 0.958708 0.000000
vn -0.746330 0.377880 0.547838
vn -0.213233 0.674856 0.706442
vn -0.613269 -0.153539 0.774773
vn -0.041658 -0.010407 0.999054
vn -0.480209 -0.684988 0.547838
vn 0.129887 -0.695730 0.706442
vn -0.954039 -0.294687 -0.054170
vn -0.948576 -0.316477 0.000000
vn -0.967193 -0.242134 -0.076601
vn -0.980346 -0.189581 -0.054170
vn -0.985809 -0.167821 0.000000
vn -0.980346 -0.189581 0.054170
vn -0.967193 -0.242134 0.076601
vn -0.954039 -0.294687 0.054170
vn 0.578600 0.651143 0.491104
vn 0.697897 0.174718 0.694540
vn 0.529191 0.848476 0.000000
vn 0.578600 0.651143 -0.491104
vn 0.697897 0.174718 -0.694540
vn 0.817164 -0.301645 -0.491104
vn 0.866573 -0.499008 0.000000
vn 0.817164 -0.301645 0.491104
vn 0.744713 -0.379467 0.548967
vn 0.799951 -0.600055 0.000000
vn 0.611377 0.153050 0.776360
vn 0.478042 0.685598 0.548967
vn 0.422803 0.906186 0.000000
vn 0.478042 0.685598 -0.548967
vn 0.611377 0.153050 -0.776360
vn 0.744713 -0.379467 -0.548967
vn -0.422803 -0.906186 0.000000
vn -0.478042 -0.685598 -0.548967
vn -0.611377 -0.153050 -0.776360
vn -0.744713 0.379467 -0.548967
vn -0.799951 0.600055 0.000000
vn -0.744713 0.379467 0.548967
vn -0.611377 -0.153050 0.776360
vn -0.478042 -0.685598 0.548967
vn -0.538072 -0.666555 0.515915
vn -0.486160 -0.873836 0.000000
vn -0.196020 -0.727195 0.657796
vn -0.129856 -0.991516 0.000000
vn -0.355785 -0.089084 0.930296
vn -0.663350 -0.166082 0.729606
vn -0.788659 0.334361 0.515915
vn -0.515549 0.549028 0.657796
vn -0.581744 0.813349 0.000000
vn -0.840571 0.541673 0.000000
vn -0.788659 0.334361 -0.515915
vn -0.515549 0.549028 -0.657796
vn -0.355785 -0.089084 -0.930296
vn -0.663350 -0.166082 -0.729606
vn -0.538072 -0.666555 -0.515915
vn -0.196020 -0.727195 -0.657796
usemtl Material
s 1
f 4//1 21//2 5//3
f 5//3 21//2 12//4
f 12//4 21//2 13//5
f 13//5 21//2 20//6
f 20//6 21//2 22//7
f 22//7 21//2 29//8
f 29//8 21//2 30//9
f 30//9 21//2 4//1
f 97//10 73//11 66//12
f 97//10 66//12 90//13
f 81//14 97//10 90//13
f 81//14 90//13 74//15
f 96//16 72//17 73//11
f 96//16 73//11 97//10
f 80//18 96//16 97//10
f 80//18 97//10 81//14
f 95//19 71//20 72//17
f 95//19 72//17 96//16
f 79//21 95//19 96//16
f 79//21 96//16 80//18
f 94//22 70//23 71//20
f 94//22 71//20 95//19
f 78//24 94//22 95//19
f 78//24 95//19 79//21
f 93//25 69//26 94//22
f 69//26 70//23 94//22
f 77//27 93//25 94//22
f 77//27 94//22 78//24
f 92//28 68//29 93//25
f 68//29 69//26 93//25
f 76//30 92//28 93//25
f 76//30 93//25 77//27
f 91//31 67//32 68//29
f 91//31 68//29 92//28
f 75//33 91//31 92//28
f 75//33 92//28 76//30
f 90//13 66//12 67//32
f 90//13 67//32 91//31
f 74//15 90//13 91//31
f 74//15 91//31 75//33
f 89//34 81//14 74//15
f 89//34 74//15 82//35
f 82//35 1//36 8//37
f 82//35 8//37 89//34
f 88//38 80//18 81//14
f 88//38 81//14 89//34
f 9//39 88//38 89//34
f 9//39 89//34 8//37
f 87//40 79//21 80//18
f 87//40 80//18 88//38
f 16//41 87//40 88//38
f 16//41 88//38 9//39
f 86//42 78//24 79//21
f 86//42 79//21 87//40
f 17//43 86//42 87//40
f 17//43 87//40 16//41
f 85//44 77//27 78//24
f 85//44 78//24 86//42
f 25//45 85//44 86//42
f 25//45 86//42 17//43
f 84//46 76//30 85//44
f 76//30 77//27 85//44
f 26//47 84//46 85//44
f 26//47 85//44 25//45
f 83//48 75//33 76//30
f 83//48 76//30 84//46
f 33//49 83//48 84//46
f 33//49 84//46 26//47
f 82//35 74//15 75//33
f 82//35 75//33 83//48
f 1//36 82//35 33//49
f 82//35 83//48 33//49
f 73//11 40//50 41//51
f 73//11 41//51 66//12
f 72//17 39//52 40//50
f 72//17 40//50 73//11
f 71//20 38//53 39//52
f 71//20 39//52 72//17
f 70//23 37//54 38//53
f 70//23 38//53 71//20
f 69//26 36//55 37//54
f 69//26 37//54 70//23
f 68//29 35//56 36//55
f 68//29 36//55 69//26
f 67//32 34//57 35//56
f 67//32 35//56 68//29
f 66//12 41//51 34//57
f 66//12 34//57 67//32
f 39//52 40//50 59//58
f 39//52 59//58 60//59
f 40//50 41//51 58//60
f 40//50 58//60 59//58
f 34//57 65//61 58//60
f 34//57 58//60 41//51
f 34//57 35//56 64//62
f 34//57 64//62 65//61
f 35//56 36//55 63//63
f 35//56 63//63 64//62
f 36//55 37//54 62//64
f 36//55 62//64 63//63
f 37//54 38//53 61//65
f 37//54 61//65 62//64
f 38//53 39//52 60//59
f 38//53 60//59 61//65
f 50//66 57//67 58//60
f 50//66 58//60 65//61
f 51//68 50//66 65//61
f 51//68 65//61 64//62
f 52//69 51//68 64//62
f 52//69 64//62 63//63
f 53//70 52//69 63//63
f 53//70 63//63 62//64
f 54//71 53//70 62//64
f 54//71 62//64 61//65
f 55//72 54//71 61//65
f 55//72 61//65 60//59
f 56//73 55//72 60//59
f 56//73 60//59 59//58
f 57//67 56//73 59//58
f 57//67 59//58 58//60
f 42//74 43//75 56//73
f 42//74 56//73 57//67
f 43//75 44//76 55//72
f 43//75 55//72 56//73
f 44//76 45//77 54//71
f 44//76 54//71 55//72
f 45//77 46//78 53//70
f 45//77 53//70 54//71
f 46//78 47//79 52//69
f 46//78 52//69 53//70
f 47//79 48//80 51//68
f 47//79 51//68 52//69
f 48//80 49//81 50//66
f 48//80 50//66 51//68
f 49//81 42//74 57//67
f 49//81 57//67 50//66
f 34//57 41//51 42//74
f 34//57 42//74 49//81
f 35//56 34//57 49//81
f 35//56 49//81 48//80
f 36//55 35//56 48//80
f 36//55 48//80 47//79
f 37//54 36//55 47//79
f 37//54 47//79 46//78
f 38//53 37//54 46//78
f 38//53 46//78 45//77
f 39//52 38//53 45//77
f 39//52 45//77 44//76
f 40//50 39//52 44//76
f 40//50 44//76 43//75
f 41//51 40//50 43//75
f 41//51 43//75 42//74
f 31//82 30//9 4//1
f 31//82 4//1 3//83
f 32//84 31//82 3//83
f 32//84 3//83 2//85
f 2//85 1//36 33//49
f 2//85 33//49 32//84
f 26//47 27//86 33//49
f 27//86 32//84 33//49
f 27//86 28//87 31//82
f 27//86 31//82 32//84
f 28//87 29//8 30//9
f 28//87 30//9 31//82
f 23//88 22//7 29//8
f 23//88 29//8 28//87
f 24//89 23//88 28//87
f 24//89 28//87 27//86
f 25//45 24//89 26//47
f 24//89 27//86 26//47
f 17//43 18//90 24//89
f 17//43 24//89 25//45
f 18//90 19//91 23//88
f 18//90 23//88 24//89
f 19//91 20//6 23//88
f 20//6 22//7 23//88
f 14//92 13//5 20//6
f 14//92 20//6 19//91
f 15//93 14//92 19//91
f 15//93 19//91 18//90
f 16//41 15//93 18//90
f 16//41 18//90 17//43
f 9//39 10//94 15//93
f 9//39 15//93 16//41
f 10//94 11//95 14//92
f 10//94 14//92 15//93
f 11//95 12//4 13//5
f 11//95 13//5 14//92
f 6//96 5//3 12//4
f 6//96 12//4 11//95
f 7//97 6//96 11//95
f 7//97 11//95 10//94
f 8//37 7//97 10//94
f 8//37 10//94 9//39
f 1//36 2//85 7//97
f 1//36 7//97 8//37
f 2//85 3//83 6//96
f 2//85 6//96 7//97
f 3//83 4//1 5//3
f 3//83 5//3 6//96
