# Blender v2.60 (sub 0) OBJ File: 'King.blend'
# www.blender.org
mtllib Models/King.mtl
o Cube
v 1.000000 4.724064 -0.822609
v -1.000000 4.724064 -0.822609
v 1.000000 4.724064 0.822609
v -1.000000 4.724064 0.822609
v 1.000000 6.312483 -0.822608
v -1.000000 6.312483 -0.822608
v 0.999999 6.312483 0.822609
v -0.999999 6.312483 0.822609
v 0.224713 4.724064 0.184851
v -0.224713 4.724064 0.184851
v 0.224713 4.724064 -0.184851
v -0.224713 4.724064 -0.184851
v 0.224713 4.361508 -0.224713
v -0.224713 4.361508 -0.224713
v 0.224713 4.361508 0.224713
v -0.224713 4.361508 0.224713
v 0.917187 4.361508 0.612711
v -0.917187 4.361508 0.612711
v 0.917187 4.361508 -0.612711
v -0.917187 4.361508 -0.612711
v 0.917187 1.967807 -0.612711
v -0.917187 1.967807 -0.612711
v 0.917187 1.967807 0.612711
v -0.917187 1.967807 0.612711
v 0.000000 4.724064 -0.822609
v 0.000000 4.724064 0.822609
v 0.000000 6.312483 -0.822609
v 0.000000 6.312483 0.822609
v 0.000000 4.724064 0.184851
v 0.000000 4.724064 -0.184851
v 0.000000 4.361508 -0.224713
v 0.000000 4.361508 0.224713
v 0.000000 4.361508 0.612711
v 0.000000 4.361508 -0.612711
v 0.000000 1.967807 -0.612711
v 0.000000 1.967807 0.612711
v 0.230704 1.967807 0.183344
v -0.230704 1.967807 0.183344
v 0.230704 1.967807 -0.183344
v -0.230704 1.967807 -0.183344
v 0.577744 1.967807 0.183344
v -0.577744 1.967807 0.183344
v 0.577744 1.967807 -0.183344
v -0.577744 1.967807 -0.183344
v 0.577744 0.005839 -0.183344
v -0.577744 0.005839 -0.183344
v 0.577744 0.005839 0.183344
v -0.577744 0.005839 0.183344
v 0.230704 0.005839 -0.183344
v -0.230704 0.005839 -0.183344
v 0.230704 0.005839 0.183344
v -0.230704 0.005839 0.183344
v 0.577744 0.409862 0.183344
v -0.577744 0.409862 0.183344
v 0.577744 0.409862 -0.183344
v -0.577744 0.409862 -0.183344
v 0.230704 0.409862 -0.183344
v -0.230704 0.409862 -0.183344
v 0.230704 0.409862 0.183344
v -0.230704 0.409862 0.183344
v 0.230704 0.409862 0.613698
v -0.230704 0.409862 0.613698
v 0.577744 0.409862 0.613698
v -0.577744 0.409862 0.613698
v 0.230704 0.005839 0.613698
v -0.230704 0.005839 0.613698
v 0.577744 0.005839 0.613698
v -0.577744 0.005839 0.613698
v 0.917187 3.907827 0.166286
v -0.917187 3.907827 0.166286
v 0.917187 3.907827 -0.166286
v -0.917187 3.907827 -0.166286
v 0.917187 4.238998 -0.166286
v -0.917187 4.238998 -0.166286
v 0.917187 4.238998 0.166286
v -0.917187 4.238998 0.166286
v 1.331502 4.238998 0.166286
v -1.331502 4.238998 0.166286
v 1.331502 4.238998 -0.166286
v -1.331502 4.238998 -0.166286
v 1.331502 3.907827 -0.166286
v -1.331502 3.907827 -0.166286
v 1.331502 3.907827 0.166286
v -1.331502 3.907827 0.166286
v 0.972035 4.238997 0.166286
v -0.972035 4.238997 0.166286
v 0.972035 4.238997 -0.166286
v -0.972035 4.238997 -0.166286
v 0.972035 3.907827 0.166286
v -0.972035 3.907827 0.166286
v 0.972035 3.907827 -0.166286
v -0.972035 3.907827 -0.166286
v 0.972035 2.101197 -0.166286
v -0.972035 2.101197 -0.166286
v 0.972035 2.101197 0.166286
v -0.972035 2.101197 0.166286
v 1.331502 2.101197 0.166286
v -1.331502 2.101197 0.166286
v 1.331502 2.101197 -0.166286
v -1.331502 2.101197 -0.166286
vt 0.399963 0.231876
vt 0.399464 0.167251
vt 0.459253 0.166789
vt 0.459752 0.231414
vt 0.783587 0.104491
vt 0.784049 0.164281
vt 0.458791 0.106999
vt 0.784548 0.228906
vt 0.783088 0.039866
vt 0.458292 0.042374
vt 0.462257 0.556211
vt 0.402467 0.556672
vt 0.342926 0.557120
vt 0.342439 0.492491
vt 0.401981 0.492043
vt 0.343000 0.566982
vt 0.402542 0.566533
vt 0.462333 0.566072
vt 0.223591 0.558019
vt 0.223105 0.493390
vt 0.283132 0.557570
vt 0.282646 0.492942
vt 0.223665 0.567880
vt 0.283207 0.567432
vt 0.343000 0.566981
vt 0.843125 0.104031
vt 0.843587 0.163821
vt 0.537185 0.859748
vt 0.536246 0.698291
vt 0.552731 0.757017
vt 0.554105 0.801146
vt 0.851633 0.696446
vt 0.596365 0.756762
vt 0.852578 0.857905
vt 0.596622 0.800581
vt 0.852550 0.863926
vt 0.597736 0.801724
vt 0.072349 0.598345
vt 0.072351 0.676869
vt 0.004902 0.676871
vt 0.004900 0.598347
vt 0.155985 0.384923
vt 0.155987 0.452371
vt 0.072346 0.452373
vt 0.072344 0.384925
vt 0.155989 0.530895
vt 0.072347 0.530896
vt 0.155990 0.598343
vt 0.155992 0.676867
vt 0.227250 0.306400
vt 0.227252 0.384922
vt 0.155984 0.306401
vt 0.227244 0.003620
vt 0.227251 0.306400
vt 0.155987 0.306402
vt 0.155980 0.003622
vt 0.088541 0.306403
vt 0.088535 0.003623
vt 0.294696 0.306399
vt 0.294698 0.384920
vt 0.294690 0.003619
vt 0.365961 0.306398
vt 0.365963 0.384918
vt 0.365954 0.003617
vt 0.227253 0.452369
vt 0.896688 0.752756
vt 0.896971 0.801070
vt 0.973427 0.857196
vt 0.942696 0.800801
vt 0.851619 0.696446
vt 0.972474 0.695730
vt 0.896682 0.752757
vt 0.942410 0.752485
vt 0.849750 0.381036
vt 0.970605 0.380320
vt 0.535585 0.980585
vt 0.850949 0.984763
vt 0.969951 0.269975
vt 0.940341 0.270151
vt 0.969648 0.218850
vt 0.848794 0.219567
vt 0.940692 0.329370
vt 0.970302 0.329195
vt 0.098318 0.824957
vt 0.077417 0.827114
vt 0.073917 0.793189
vt 0.094817 0.791033
vt 0.153755 0.827625
vt 0.132885 0.825189
vt 0.136839 0.791314
vt 0.157709 0.793751
vt 0.436245 0.740322
vt 0.343391 0.740019
vt 0.415573 0.681036
vt 0.436438 0.681104
vt 0.343890 0.587255
vt 0.436744 0.587558
vt 0.415685 0.646708
vt 0.436550 0.646776
vt 0.435763 0.887814
vt 0.342908 0.887510
vt 0.190143 0.887011
vt 0.189839 0.979865
vt 0.042348 0.979382
vt 0.042652 0.886528
vt 0.342604 0.980365
vt 0.190625 0.739519
vn 0.000001 -1.000000 0.000000
vn -0.000001 -1.000000 0.000000
vn 1.000000 -0.000000 0.000000
vn -1.000000 0.000000 0.000000
vn 0.000000 -0.000000 1.000000
vn -0.000000 0.000000 -1.000000
vn -0.000004 -1.000000 -0.000000
vn 0.000004 -1.000000 0.000000
vn -0.000001 1.000000 0.000000
vn 0.000001 1.000000 0.000000
vn 0.000009 1.000000 -0.000000
vn -0.000009 1.000000 0.000000
vn -0.000000 -1.000000 -0.000000
vn -0.000000 1.000000 0.000000
vn -0.000000 0.109289 0.994010
vn 0.000000 0.109289 -0.994010
vn 1.000000 0.000000 0.000001
vn -1.000000 0.000000 0.000001
usemtl Material_King
s off
f 93/1/1 99/2/1 97/3/1
f 98/3/2 100/2/2 94/1/2
f 93/1/1 97/3/1 95/4/1
f 96/4/2 98/3/2 94/1/2
f 81/5/3 83/6/3 97/3/3
f 98/3/4 84/6/4 82/5/4
f 81/5/3 97/3/3 99/7/3
f 100/7/4 98/3/4 82/5/4
f 83/6/5 89/8/5 97/3/5
f 98/3/5 90/8/5 84/6/5
f 89/8/5 95/4/5 97/3/5
f 98/3/5 96/4/5 90/8/5
f 91/9/6 81/5/6 99/7/6
f 100/7/6 82/5/6 92/9/6
f 91/9/6 99/7/6 93/10/6
f 94/10/6 100/7/6 92/9/6
f 89/11/4 91/12/4 93/1/4
f 94/1/3 92/12/3 90/11/3
f 89/11/4 93/1/4 95/4/4
f 96/4/3 94/1/3 90/11/3
f 87/13/6 79/14/6 81/15/6
f 82/15/6 80/14/6 88/13/6
f 87/13/6 81/15/6 91/12/6
f 92/12/6 82/15/6 88/13/6
f 73/16/6 87/13/6 71/17/6
f 72/17/6 88/13/6 74/16/6
f 87/13/6 91/12/6 71/17/6
f 72/17/6 92/12/6 88/13/6
f 71/17/7 91/12/7 89/11/7
f 90/11/8 92/12/8 72/17/8
f 71/17/7 89/11/7 69/18/7
f 70/18/8 90/11/8 72/17/8
f 89/19/5 83/20/5 85/21/5
f 86/21/5 84/20/5 90/19/5
f 83/20/5 77/22/5 85/21/5
f 86/21/5 78/22/5 84/20/5
f 69/23/5 89/19/5 85/21/5
f 86/21/5 90/19/5 70/23/5
f 69/23/5 85/21/5 75/24/5
f 76/24/5 86/21/5 70/23/5
f 85/21/9 77/22/9 79/14/9
f 80/14/10 78/22/10 86/21/10
f 85/21/9 79/14/9 87/13/9
f 88/13/10 80/14/10 86/21/10
f 75/24/11 85/21/11 87/13/11
f 88/13/12 86/21/12 76/24/12
f 75/24/11 87/13/11 73/25/11
f 74/25/12 88/13/12 76/24/12
f 79/26/3 77/27/3 83/6/3
f 84/6/4 78/27/4 80/26/4
f 79/26/3 83/6/3 81/5/3
f 82/5/4 84/6/4 80/26/4
f 19/28/3 17/29/3 75/30/3
f 76/30/4 18/29/4 20/28/4
f 19/28/3 75/30/3 73/31/3
f 74/31/4 76/30/4 20/28/4
f 17/29/3 23/32/3 69/33/3
f 70/33/4 24/32/4 18/29/4
f 17/29/3 69/33/3 75/30/3
f 76/30/4 70/33/4 18/29/4
f 23/32/3 21/34/3 71/35/3
f 72/35/4 22/34/4 24/32/4
f 23/32/3 71/35/3 69/33/3
f 70/33/4 72/35/4 24/32/4
f 21/36/3 19/28/3 71/37/3
f 72/37/4 20/28/4 22/36/4
f 19/28/3 73/31/3 71/37/3
f 72/37/4 74/31/4 20/28/4
f 61/38/5 65/39/5 67/40/5
f 68/40/5 66/39/5 62/38/5
f 61/38/5 67/40/5 63/41/5
f 64/41/5 68/40/5 62/38/5
f 51/42/13 47/43/13 67/44/13
f 68/44/13 48/43/13 52/42/13
f 51/42/13 67/44/13 65/45/13
f 66/45/13 68/44/13 52/42/13
f 47/43/3 53/46/3 63/47/3
f 64/47/4 54/46/4 48/43/4
f 47/43/3 63/47/3 67/44/3
f 68/44/4 64/47/4 48/43/4
f 59/48/4 51/49/4 65/39/4
f 66/39/3 52/49/3 60/48/3
f 59/48/4 65/39/4 61/38/4
f 62/38/3 66/39/3 60/48/3
f 53/46/14 59/48/14 61/38/14
f 62/38/14 60/48/14 54/46/14
f 53/46/14 61/38/14 63/47/14
f 64/47/14 62/38/14 54/46/14
f 57/50/4 49/51/4 51/42/4
f 52/42/3 50/51/3 58/50/3
f 57/50/4 51/42/4 59/52/4
f 60/52/3 52/42/3 58/50/3
f 39/53/4 57/54/4 59/55/4
f 60/55/3 58/54/3 40/53/3
f 39/53/4 59/55/4 37/56/4
f 38/56/3 60/55/3 40/53/3
f 37/56/5 59/55/5 53/57/5
f 54/57/5 60/55/5 38/56/5
f 37/56/5 53/57/5 41/58/5
f 42/58/5 54/57/5 38/56/5
f 55/59/6 45/60/6 49/51/6
f 50/51/6 46/60/6 56/59/6
f 55/59/6 49/51/6 57/50/6
f 58/50/6 50/51/6 56/59/6
f 43/61/6 55/59/6 57/54/6
f 58/54/6 56/59/6 44/61/6
f 43/61/6 57/54/6 39/53/6
f 40/53/6 58/54/6 44/61/6
f 53/62/3 47/63/3 45/60/3
f 46/60/4 48/63/4 54/62/4
f 53/62/3 45/60/3 55/59/3
f 56/59/4 46/60/4 54/62/4
f 41/64/3 53/62/3 55/59/3
f 56/59/4 54/62/4 42/64/4
f 41/64/3 55/59/3 43/61/3
f 44/61/4 56/59/4 42/64/4
f 47/43/13 51/42/13 49/51/13
f 50/51/13 52/42/13 48/43/13
f 47/43/13 49/51/13 45/65/13
f 46/65/13 50/51/13 48/43/13
f 21/34/13 23/32/13 41/66/13
f 42/66/13 24/32/13 22/34/13
f 21/34/13 41/66/13 43/67/13
f 44/67/13 42/66/13 22/34/13
f 35/68/13 21/34/13 43/67/13
f 44/67/13 22/34/13 35/68/13
f 35/68/13 43/67/13 39/69/13
f 40/69/13 44/67/13 35/68/13
f 23/70/13 36/71/13 41/72/13
f 42/72/13 36/71/13 24/70/13
f 36/71/13 37/73/13 41/72/13
f 42/72/13 38/73/13 36/71/13
f 36/71/13 35/68/13 37/73/13
f 38/73/13 35/68/13 36/71/13
f 35/68/13 39/69/13 37/73/13
f 38/73/13 40/69/13 35/68/13
f 17/74/5 33/75/5 36/71/5
f 36/71/5 33/75/5 18/74/5
f 17/74/5 36/71/5 23/70/5
f 24/70/5 36/71/5 18/74/5
f 34/76/6 19/28/6 21/36/6
f 22/36/6 20/28/6 34/76/6
f 34/76/6 21/36/6 35/77/6
f 35/77/6 22/36/6 34/76/6
f 31/78/14 13/79/14 34/80/14
f 34/80/14 14/79/14 31/78/14
f 13/79/14 19/81/14 34/80/14
f 34/80/14 20/81/14 14/79/14
f 15/82/14 32/83/14 33/75/14
f 33/75/14 32/83/14 16/82/14
f 15/82/14 33/75/14 17/74/14
f 18/74/14 33/75/14 16/82/14
f 9/84/15 29/85/15 32/86/15
f 32/86/15 29/85/15 10/84/15
f 9/84/15 32/86/15 15/87/15
f 16/87/15 32/86/15 10/84/15
f 30/88/16 11/89/16 13/90/16
f 14/90/16 12/89/16 30/88/16
f 30/88/16 13/90/16 31/91/16
f 31/91/16 14/90/16 30/88/16
f 25/92/13 1/93/13 11/94/13
f 12/94/13 2/93/13 25/92/13
f 25/92/13 11/94/13 30/95/13
f 30/95/13 12/94/13 25/92/13
f 3/96/13 26/97/13 9/98/13
f 10/98/13 26/97/13 4/96/13
f 26/97/13 29/99/13 9/98/13
f 10/98/13 29/99/13 26/97/13
f 1/93/6 25/92/6 27/100/6
f 27/100/6 25/92/6 2/93/6
f 1/93/6 27/100/6 5/101/6
f 6/101/6 27/100/6 2/93/6
f 7/102/5 28/103/5 26/104/5
f 26/104/5 28/103/5 8/102/5
f 7/102/5 26/104/5 3/105/5
f 4/105/5 26/104/5 8/102/5
f 5/101/14 27/106/14 7/102/14
f 8/102/14 27/106/14 6/101/14
f 27/106/14 28/103/14 7/102/14
f 8/102/14 28/103/14 27/106/14
f 13/79/14 15/82/14 19/81/14
f 20/81/14 16/82/14 14/79/14
f 15/82/14 17/74/14 19/81/14
f 20/81/14 18/74/14 16/82/14
f 11/89/3 9/84/3 15/87/3
f 16/87/4 10/84/4 12/89/4
f 11/89/3 15/87/3 13/90/3
f 14/90/4 16/87/4 12/89/4
f 1/93/13 3/96/13 9/98/13
f 10/98/13 4/96/13 2/93/13
f 1/93/13 9/98/13 11/94/13
f 12/94/13 10/98/13 2/93/13
f 1/93/3 5/101/3 3/107/3
f 4/107/4 6/101/4 2/93/4
f 5/101/17 7/102/17 3/107/17
f 4/107/18 8/102/18 6/101/18
