# Blender v2.58 (sub 1) OBJ File: ''
# www.blender.org
mtllib Models/wing.mtl
o Cube.001_Cube.005
v 2.648807 -0.068533 -0.226972
v 2.648807 0.068532 -0.226972
v 2.648807 -0.068532 0.226972
v 2.648806 0.068532 0.226972
v 0.657362 0.221910 -0.477365
v 0.657362 -0.221911 -0.477365
v 0.657361 0.221910 0.477365
v 0.657362 -0.221911 0.477365
v 2.648807 -0.000000 -0.288956
v 2.648807 -0.000000 0.288956
v 0.657362 -0.000000 -0.477365
v 0.657361 -0.000000 0.477365
v 2.762331 0.114979 -0.000000
v 2.762332 -0.114979 0.000000
v 0.657361 0.221910 -0.000000
v 0.657362 -0.221911 0.000000
v 2.859292 -0.000000 0.000000
vt 0.721543 0.481509
vt 0.797570 0.481509
vt 0.797570 0.808601
vt 0.721543 0.808601
vt 0.836975 0.000000
vt 0.836975 0.327092
vt 0.760948 0.000000
vt 0.760948 0.327092
vt 0.706851 0.158587
vt 0.665076 0.070955
vt 0.760948 0.141955
vt 0.675743 0.037861
vt 0.842957 0.674408
vt 0.797570 0.611995
vt 0.829700 0.580506
vt 0.870123 0.679503
vt 0.885959 0.504162
vt 0.874689 0.580506
vt 0.870123 0.481509
vt 0.885959 0.656849
vt 0.002983 0.643391
vt 0.000000 0.481509
vt 0.678898 0.553939
vt 0.721543 0.643391
vt 0.734606 0.396752
vt 0.686187 0.481509
vt 0.020241 0.320048
vt 0.002922 0.158587
vt 0.000000 0.000000
vt 0.000000 0.320048
vt 0.020241 0.158587
vt 0.686187 0.320048
vt 0.734606 0.235291
vt 0.006744 0.999920
vt 0.000000 0.911669
vt 0.677692 0.911669
vt 0.680790 1.000000
vt 0.000000 0.822954
vt 0.007507 0.733200
vt 0.689249 0.823114
vt 0.691224 0.733200
vt 0.680781 0.823114
vt 0.678835 0.911669
vt 0.007393 0.823114
vt 0.000000 0.911512
vt 0.689027 0.643391
vt 0.692177 0.733200
vt 0.006856 0.733118
vt 0.000000 0.643392
vn 0.524247 0.593616 0.610523
vn 0.661763 0.000000 0.749687
vn 0.661763 0.000000 -0.749687
vn 0.524247 0.593616 -0.610523
vn 0.524247 -0.593616 0.610523
vn 0.524247 -0.593616 -0.610523
vn -0.506821 -0.862026 0.000000
vn -0.351756 -0.778710 0.519425
vn -0.999969 0.000000 0.000000
vn -0.431471 0.000000 0.902097
vn -0.351756 -0.778710 -0.519425
vn -0.431471 0.000000 -0.902097
vn -0.351756 0.778710 0.519425
vn -0.506821 0.862026 0.000000
vn -0.351756 0.778710 -0.519425
vn -0.074892 0.997162 0.000000
vn -0.074892 -0.997162 0.000000
usemtl None_wing.001
s 1
f 6/1/1 11/2/2 12/3/3
f 6/1/1 12/3/3 8/4/4
f 5/5/5 7/6/6 11/7/2
f 7/6/6 12/8/3 11/7/2
f 13/9/7 2/10/8 17/11/9
f 2/10/8 9/12/10 17/11/9
f 4/13/11 13/14/7 17/15/9
f 4/13/11 17/15/9 10/16/12
f 1/17/13 14/18/14 17/15/9
f 1/17/13 17/15/9 9/19/10
f 10/16/12 17/15/9 3/20/15
f 17/15/9 14/18/14 3/20/15
f 16/21/16 8/22/4 3/23/15
f 16/21/16 3/23/15 14/24/14
f 14/25/14 1/26/13 16/27/16
f 1/26/13 6/22/1 16/27/16
f 15/28/17 5/29/5 2/10/8
f 15/28/17 2/10/8 13/9/7
f 7/30/6 15/31/17 4/32/11
f 15/31/17 13/33/7 4/32/11
f 12/34/3 7/35/6 4/36/11
f 12/34/3 4/36/11 10/37/12
f 8/38/4 12/39/3 3/40/15
f 12/39/3 10/41/12 3/40/15
f 9/42/10 2/43/8 11/44/2
f 2/43/8 5/45/5 11/44/2
f 1/46/13 9/47/10 11/48/2
f 1/46/13 11/48/2 6/49/1
